<?xml version="1.0" encoding="utf-8"?>
<!-- Generator: Adobe Illustrator 16.0.3, SVG Export Plug-In . SVG Version: 6.00 Build 0)  -->
<!DOCTYPE svg PUBLIC "-//W3C//DTD SVG 1.1//EN" "http://www.w3.org/Graphics/SVG/1.1/DTD/svg11.dtd">
<svg version="1.1" id="Layer_1" xmlns="http://www.w3.org/2000/svg" xmlns:xlink="http://www.w3.org/1999/xlink" x="0px" y="0px"
	 width="166.875px" height="54.25px" viewBox="0 0 166.875 54.25" enable-background="new 0 0 166.875 54.25" xml:space="preserve">
<path fill="#2A3F54" d="M4.397,13.83c0.003-0.227,0.12-0.451,0.235-0.563c0.115-0.112,0.343-0.221,0.569-0.217l1.584,0.025
	c0.452,0.008,0.787,0.353,0.779,0.805l-0.002,0.113l-0.33,6.444c-0.004,0.227,0.163,0.399,0.39,0.403l15.447-0.033l0.055,0.058l0,0
	c0.453,0.007,0.787,0.354,0.78,0.805l-0.026,1.584c-0.007,0.452-0.352,0.786-0.805,0.779l0,0l-18.446,0.04
	c-0.226-0.003-0.395-0.063-0.562-0.234c-0.167-0.173-0.221-0.344-0.217-0.57l0.488-9.158L4.397,13.83L4.397,13.83z"/>
<path fill="#2A3F54" d="M53.777,13.83l0.061,0.281l0.488,9.158c0.003,0.227-0.05,0.397-0.217,0.57
	c-0.167,0.172-0.336,0.231-0.562,0.234l-18.446-0.04l0,0c-0.453,0.007-0.798-0.327-0.805-0.779L34.27,21.67
	c-0.007-0.452,0.327-0.798,0.779-0.805l0,0l0.055-0.058l15.447,0.033c0.226-0.004,0.394-0.177,0.39-0.403l-0.331-6.444l-0.002-0.113
	c-0.007-0.452,0.327-0.797,0.779-0.805l1.584-0.025c0.227-0.004,0.455,0.105,0.569,0.217C53.657,13.378,53.773,13.603,53.777,13.83
	L53.777,13.83z"/>
<path fill="#2A3F54" d="M16.54,50.838l-0.243-0.154L9.46,44.57c-0.163-0.158-0.246-0.316-0.25-0.557s0.073-0.4,0.229-0.564
	l13.039-13.047l0,0c0.314-0.326,0.794-0.334,1.12-0.021l1.141,1.1c0.326,0.314,0.335,0.793,0.021,1.119l0,0l0.001,0.08
	L13.844,43.607c-0.157,0.162-0.152,0.401,0.011,0.561l4.802,4.311l0.082,0.078c0.326,0.314,0.335,0.795,0.021,1.119l-1.099,1.143
	c-0.157,0.162-0.396,0.246-0.555,0.25C16.944,51.07,16.703,50.996,16.54,50.838L16.54,50.838z"/>
<path fill="#2A3F54" d="M4.463,36.623l-0.061-0.281l-0.488-9.159c-0.003-0.227,0.05-0.397,0.217-0.569
	c0.167-0.173,0.336-0.231,0.562-0.235l18.446,0.041l0,0c0.453-0.008,0.797,0.326,0.805,0.779l0.026,1.583
	c0.007,0.453-0.327,0.8-0.779,0.806l0,0l-0.056,0.06L7.688,29.611c-0.226,0.004-0.394,0.176-0.39,0.402l0.331,6.444l0.002,0.112
	c0.007,0.451-0.327,0.798-0.779,0.806L5.268,37.4c-0.227,0.004-0.455-0.104-0.569-0.217C4.583,37.074,4.467,36.85,4.463,36.623
	L4.463,36.623z"/>
<path fill="#2A3F54" d="M53.843,36.623c-0.003,0.227-0.12,0.451-0.235,0.563c-0.115,0.112-0.343,0.221-0.569,0.217l-1.584-0.024
	c-0.452-0.008-0.787-0.354-0.779-0.806l0.002-0.112l0.33-6.444c0.004-0.228-0.163-0.398-0.39-0.402l-15.447,0.033l-0.055-0.06l0,0
	c-0.453-0.006-0.787-0.353-0.78-0.806l0.026-1.583c0.008-0.453,0.352-0.787,0.805-0.779l0,0l18.446-0.041
	c0.226,0.004,0.395,0.063,0.562,0.235c0.167,0.172,0.221,0.343,0.217,0.569l-0.488,9.159L53.843,36.623L53.843,36.623z"/>
<path fill="#2A3F54" d="M42.061,50.838c-0.163,0.158-0.404,0.232-0.564,0.23c-0.16-0.004-0.398-0.088-0.556-0.25l-1.099-1.144
	c-0.314-0.323-0.305-0.805,0.021-1.118l0.081-0.078l4.802-4.312c0.164-0.158,0.168-0.397,0.011-0.562L33.839,32.68l0.001-0.08l0,0
	c-0.314-0.326-0.305-0.805,0.021-1.119l1.141-1.1c0.326-0.313,0.806-0.305,1.12,0.021l0,0l13.039,13.047
	c0.157,0.164,0.234,0.324,0.229,0.564c-0.005,0.239-0.087,0.397-0.25,0.557l-6.836,6.113L42.061,50.838L42.061,50.838z"/>
<path id="XMLID_10_" fill="#2A3F54" d="M9.21,10.042c0,0,0,12.594,0,16.331c0,15.197,19.877,23.191,19.877,23.191
	s19.877-7.994,19.877-23.191c0-3.737,0-16.331,0-16.331l-19.877-6.86L9.21,10.042z"/>
<path id="XMLID_9_" fill="#FFFFFF" d="M14.8,14.862c0,0,0,8.939,0,11.592c0,10.789,14.109,16.462,14.109,16.462
	s14.109-5.674,14.109-16.462c0-2.652,0-11.592,0-11.592L28.91,9.992L14.8,14.862z"/>
<path id="XMLID_5_" fill="#93C01F" d="M17.156,16.602c0,0,0,7.503,0,9.729c0,9.052,11.839,13.813,11.839,13.813
	s11.84-4.762,11.84-13.813c0-2.226,0-9.729,0-9.729l-11.84-4.086L17.156,16.602z"/>
<path fill="#FFFFFF" d="M19.641,27.053c-0.145-0.145-0.217-0.361-0.217-0.506s0.072-0.361,0.217-0.507l1.012-1.012
	c0.289-0.288,0.723-0.288,1.012,0l0.072,0.072l3.975,4.263c0.145,0.146,0.361,0.146,0.506,0l9.685-10.044h0.072l0,0
	c0.289-0.29,0.723-0.29,1.012,0L38,20.332c0.289,0.289,0.289,0.723,0,1.012l0,0L26.435,33.342c-0.145,0.145-0.289,0.217-0.506,0.217
	c-0.217,0-0.361-0.072-0.506-0.217l-5.638-6.072L19.641,27.053L19.641,27.053z"/>
<text transform="matrix(1 0 0 1 65.479 36.9766)" fill="#2A3F54" font-family="'HelveticaNeue'" font-size="22.0411">Bu</text>
<text transform="matrix(1 0 0 1 89.1133 36.9766)" fill="#93C01F" font-family="'HelveticaNeue'" font-size="22.0411">gg</text>
<text transform="matrix(1 0 0 1 112.7041 36.9766)" fill="#2A3F54" font-family="'HelveticaNeue'" font-size="22.0411">reen</text>
</svg>
