<?xml version="1.0" encoding="utf-8"?>
<!-- Generator: Adobe Illustrator 16.0.3, SVG Export Plug-In . SVG Version: 6.00 Build 0)  -->
<!DOCTYPE svg PUBLIC "-//W3C//DTD SVG 1.1//EN" "http://www.w3.org/Graphics/SVG/1.1/DTD/svg11.dtd">
<svg version="1.1" id="Layer_1" xmlns="http://www.w3.org/2000/svg" xmlns:xlink="http://www.w3.org/1999/xlink" x="0px" y="0px"
	 width="166.875px" height="54.25px" viewBox="0 -6.25 166.875 54.25" enable-background="new 0 -6.25 166.875 54.25"
	 xml:space="preserve">
<path fill="#454751" d="M242.9,132H150.1c-1.199,0-2.1-0.9-2.1-2v-12c0-1.1,0.9-2,2.1-2H242.9c1.199,0,2.1,0.9,2.1,2v12
	C245,131.1,244.1,132,242.9,132z"/>
<text transform="matrix(1 0 0 1 61.0674 28.7139)"><tspan x="0" y="0" fill="#2A3F54" font-family="'ArialUnicodeMS'" font-size="22.4381">Bu</tspan><tspan x="27.445" y="0" fill="#93C01F" font-family="'ArialUnicodeMS'" font-size="24">gg</tspan><tspan x="54.141" y="0" fill="#2A3F54" font-family="'ArialUnicodeMS'" font-size="22.4381">reen</tspan></text>
<path fill="#2A3F54" d="M1.557,7.212C1.56,6.982,1.677,6.755,1.793,6.643C1.91,6.53,2.141,6.42,2.37,6.423L3.973,6.45
	c0.459,0.007,0.796,0.357,0.789,0.814L4.76,7.377L4.426,13.9c-0.005,0.228,0.164,0.404,0.394,0.407l15.634-0.032l0.056,0.057l0,0
	c0.458,0.008,0.796,0.356,0.788,0.816l-0.026,1.603c-0.006,0.457-0.355,0.795-0.813,0.787l0,0L1.788,17.579
	c-0.228-0.003-0.398-0.063-0.568-0.237C1.05,17.167,0.996,16.996,1,16.766l0.494-9.271L1.557,7.212L1.557,7.212z"/>
<path fill="#2A3F54" d="M54.108,7.212l0.061,0.284l0.494,9.271c0.003,0.23-0.051,0.401-0.22,0.576
	c-0.168,0.174-0.339,0.234-0.568,0.237l-18.668-0.041l0,0c-0.459,0.008-0.808-0.33-0.815-0.787l-0.025-1.603
	c-0.008-0.459,0.33-0.808,0.789-0.816l0,0l0.055-0.057l15.635,0.032c0.228-0.003,0.398-0.179,0.394-0.407l-0.335-6.523l-0.001-0.114
	c-0.007-0.457,0.33-0.807,0.789-0.814l1.602-0.026c0.229-0.003,0.46,0.106,0.577,0.22C53.985,6.755,54.104,6.982,54.108,7.212
	L54.108,7.212z"/>
<path fill="#2A3F54" d="M15.421,44.669l-0.246-0.157l-6.92-6.19c-0.164-0.157-0.249-0.317-0.252-0.561
	c-0.005-0.241,0.074-0.405,0.231-0.57l13.196-13.208l0,0c0.318-0.329,0.805-0.339,1.134-0.019l1.155,1.11
	c0.33,0.318,0.339,0.806,0.021,1.134l0,0l0.001,0.081L12.693,37.35c-0.16,0.166-0.155,0.407,0.011,0.568l4.859,4.362l0.083,0.078
	c0.329,0.315,0.337,0.804,0.021,1.134l-1.113,1.154c-0.158,0.164-0.4,0.249-0.561,0.254C15.83,44.905,15.585,44.827,15.421,44.669
	L15.421,44.669z"/>
<path fill="#2A3F54" d="M1.623,30.281l-0.062-0.284l-0.495-9.271c-0.003-0.229,0.051-0.402,0.221-0.577
	c0.169-0.174,0.338-0.234,0.568-0.237l18.669,0.041l0,0c0.458-0.007,0.807,0.33,0.814,0.789l0.026,1.602
	c0.008,0.46-0.331,0.807-0.789,0.814l0,0l-0.055,0.059L4.886,23.186c-0.229,0.002-0.398,0.177-0.394,0.405l0.334,6.522l0.002,0.112
	c0.006,0.462-0.331,0.809-0.79,0.817l-1.603,0.026c-0.229,0.003-0.459-0.107-0.577-0.222C1.745,30.736,1.626,30.51,1.623,30.281
	L1.623,30.281z"/>
<path fill="#2A3F54" d="M54.174,30.281c-0.003,0.229-0.121,0.455-0.237,0.566c-0.117,0.114-0.347,0.225-0.577,0.222l-1.603-0.026
	c-0.458-0.009-0.796-0.355-0.788-0.817l0.001-0.112l0.334-6.522c0.005-0.229-0.165-0.403-0.394-0.405l-15.634,0.031l-0.056-0.059
	l0,0c-0.459-0.008-0.796-0.354-0.788-0.814l0.026-1.602c0.006-0.459,0.354-0.796,0.813-0.789l0,0l18.669-0.041
	c0.229,0.003,0.399,0.063,0.568,0.237c0.17,0.175,0.223,0.348,0.22,0.577l-0.494,9.271L54.174,30.281L54.174,30.281z"/>
<path fill="#2A3F54" d="M41.25,44.669c-0.165,0.158-0.409,0.236-0.571,0.231s-0.403-0.09-0.563-0.254l-1.113-1.154
	c-0.317-0.33-0.309-0.818,0.022-1.134l0.082-0.078l4.861-4.362c0.165-0.161,0.169-0.402,0.01-0.568L32.93,26.289l0-0.081l0,0
	c-0.317-0.328-0.309-0.815,0.022-1.134l1.155-1.11c0.33-0.32,0.815-0.311,1.132,0.019l0,0L48.436,37.19
	c0.159,0.165,0.237,0.329,0.234,0.57c-0.005,0.243-0.09,0.403-0.254,0.561l-6.919,6.19L41.25,44.669L41.25,44.669z"/>
<path id="XMLID_6_" fill="#2A3F54" d="M8.003,3.377c0,0,0,12.747,0,16.529c0,15.383,20.116,23.471,20.116,23.471
	s20.118-8.088,20.118-23.471c0-3.782,0-16.529,0-16.529L28.119-3.565L8.003,3.377z"/>
<path id="XMLID_8_" fill="#FFFFFF" d="M13.66,8.257c0,0,0,9.046,0,11.732c0,10.918,14.28,16.66,14.28,16.66s14.28-5.742,14.28-16.66
	c0-2.687,0-11.732,0-11.732L27.94,3.329L13.66,8.257z"/>
<path id="XMLID_7_" fill="#93C01F" d="M16.045,10.019c0,0,0,7.593,0,9.845c0,9.162,11.982,13.981,11.982,13.981
	s11.982-4.819,11.982-13.981c0-2.252,0-9.845,0-9.845L28.027,5.883L16.045,10.019z"/>
<path fill="#FFFFFF" d="M18.559,20.596c-0.146-0.146-0.219-0.366-0.219-0.513c0-0.146,0.073-0.365,0.219-0.512l1.025-1.024
	c0.292-0.293,0.732-0.293,1.023,0l0.074,0.073l4.023,4.314c0.146,0.147,0.365,0.147,0.512,0l9.802-10.167h0.072l0,0
	c0.293-0.292,0.732-0.292,1.024,0l1.024,1.024c0.293,0.292,0.293,0.732,0,1.024l0,0L25.437,26.958
	c-0.147,0.147-0.294,0.221-0.513,0.221s-0.365-0.073-0.512-0.221l-5.706-6.144L18.559,20.596L18.559,20.596z"/>
</svg>
